<?xml version="1.0" encoding="UTF-8" standalone="no"?>
<!-- Created with Inkscape (http://www.inkscape.org/) -->

<svg
   xmlns:dc="http://purl.org/dc/elements/1.1/"
   xmlns:cc="http://creativecommons.org/ns#"
   xmlns:rdf="http://www.w3.org/1999/02/22-rdf-syntax-ns#"
   xmlns:svg="http://www.w3.org/2000/svg"
   xmlns="http://www.w3.org/2000/svg"
   xmlns:sodipodi="http://sodipodi.sourceforge.net/DTD/sodipodi-0.dtd"
   xmlns:inkscape="http://www.inkscape.org/namespaces/inkscape"
   width="100"
   height="100"
   id="svg2"
   version="1.1"
   inkscape:version="0.48.4 r9939"
   sodipodi:docname="torogologo2d.svg">
  <defs
     id="defs4" />
  <sodipodi:namedview
     id="base"
     pagecolor="#ffffff"
     bordercolor="#666666"
     borderopacity="1.0"
     inkscape:pageopacity="0.0"
     inkscape:pageshadow="2"
     inkscape:zoom="3.959798"
     inkscape:cx="137.79398"
     inkscape:cy="71.45428"
     inkscape:document-units="px"
     inkscape:current-layer="layer1"
     showgrid="false"
     showguides="true"
     inkscape:guide-bbox="true"
     inkscape:window-width="1920"
     inkscape:window-height="1017"
     inkscape:window-x="1912"
     inkscape:window-y="-8"
     inkscape:window-maximized="1" />
  <metadata
     id="metadata7">
    <rdf:RDF>
      <cc:Work
         rdf:about="">
        <dc:format>image/svg+xml</dc:format>
        <dc:type
           rdf:resource="http://purl.org/dc/dcmitype/StillImage" />
        <dc:title></dc:title>
      </cc:Work>
    </rdf:RDF>
  </metadata>
  <g
     inkscape:label="Layer 1"
     inkscape:groupmode="layer"
     id="layer1"
     transform="translate(0,-952.36218)">
    <g
       id="g4486"
       transform="translate(-1.3023448,-1.0968638)">
      <path
         transform="matrix(0.26599188,0,0,0.26599188,7.8514103,801.5771)"
         d="M 163.57143,913.72218 54.018377,868.34383 8.6400146,758.79078 54.018372,649.23772 163.57142,603.85936 l 109.55306,45.37836 45.37836,109.55305 -45.37836,109.55305 z"
         inkscape:randomized="0"
         inkscape:rounded="0"
         inkscape:flatsided="true"
         sodipodi:arg2="1.9634954"
         sodipodi:arg1="1.5707963"
         sodipodi:r2="170.58488"
         sodipodi:r1="154.93141"
         sodipodi:cy="758.79077"
         sodipodi:cx="163.57143"
         sodipodi:sides="8"
         id="path3905-8-2-1"
         style="fill:none;stroke:#ffcd67;stroke-width:44.68984985;stroke-linecap:butt;stroke-linejoin:miter;stroke-miterlimit:4.80000019;stroke-opacity:1;stroke-dasharray:none;stroke-dashoffset:0"
         sodipodi:type="star" />
      <path
         transform="matrix(0.26599188,0,0,0.26599188,7.7936736,801.62686)"
         d="M 162.76837,938.29668 36.073734,885.15277 -15.934483,757.98772 37.209427,631.29308 164.37448,579.28486 l 126.69464,53.14391 52.00822,127.16506 -53.14391,126.69463 z"
         inkscape:randomized="0"
         inkscape:rounded="0"
         inkscape:flatsided="true"
         sodipodi:arg2="1.9679691"
         sodipodi:arg1="1.57527"
         sodipodi:r2="170.58488"
         sodipodi:r1="179.50771"
         sodipodi:cy="758.79077"
         sodipodi:cx="163.57143"
         sodipodi:sides="8"
         id="path3905"
         style="fill:none;stroke:#666666;stroke-width:3.42724133;stroke-linecap:butt;stroke-linejoin:miter;stroke-miterlimit:4.80000019;stroke-opacity:1;stroke-dasharray:none;stroke-dashoffset:0"
         sodipodi:type="star" />
      <path
         transform="matrix(0.26599188,0,0,0.26599188,7.7936736,801.62686)"
         d="M 163.57143,913.72218 54.018377,868.34383 8.6400146,758.79078 54.018372,649.23772 163.57142,603.85936 l 109.55306,45.37836 45.37836,109.55305 -45.37836,109.55305 z"
         inkscape:randomized="0"
         inkscape:rounded="0"
         inkscape:flatsided="true"
         sodipodi:arg2="1.9634954"
         sodipodi:arg1="1.5707963"
         sodipodi:r2="170.58488"
         sodipodi:r1="154.93141"
         sodipodi:cy="758.79077"
         sodipodi:cx="163.57143"
         sodipodi:sides="8"
         id="path3905-8-2"
         style="fill:none;stroke:#666666;stroke-width:6.28441;stroke-linecap:butt;stroke-linejoin:miter;stroke-miterlimit:4.80000019;stroke-opacity:1;stroke-dasharray:none;stroke-dashoffset:0"
         sodipodi:type="star" />
      <path
         transform="matrix(0.26599188,0,0,0.26599188,7.7936736,801.62686)"
         d="M 163.58495,888.67711 71.73748,850.64384 33.68509,758.8043 l 38.033264,-91.84747 91.839546,-38.0524 91.84747,38.03327 38.05239,91.83955 -38.03326,91.84747 z"
         inkscape:randomized="0"
         inkscape:rounded="0"
         inkscape:flatsided="true"
         sodipodi:arg2="1.9633913"
         sodipodi:arg1="1.5706922"
         sodipodi:r2="170.58488"
         sodipodi:r1="129.88634"
         sodipodi:cy="758.79077"
         sodipodi:cx="163.57143"
         sodipodi:sides="8"
         id="path3905-8-2-4-5"
         style="fill:none;stroke:#666666;stroke-width:3.42724133;stroke-linecap:butt;stroke-linejoin:miter;stroke-miterlimit:4.80000019;stroke-opacity:1;stroke-dasharray:none;stroke-dashoffset:0"
         sodipodi:type="star" />
      <path
         transform="matrix(0.58036384,0,0,0.58036384,164.41627,484.54079)"
         d="m -134.35028,944.27588 c 0,6.13681 -4.97487,11.11168 -11.11168,11.11168 -6.13681,0 -11.11168,-4.97487 -11.11168,-11.11168 0,-6.13681 4.97487,-11.11168 11.11168,-11.11168 6.13681,0 11.11168,4.97487 11.11168,11.11168 z"
         sodipodi:ry="11.111678"
         sodipodi:rx="11.111678"
         sodipodi:cy="944.27588"
         sodipodi:cx="-145.46196"
         id="path3979-5-11"
         style="fill:#ffffff;fill-opacity:1;stroke:#333333"
         sodipodi:type="arc" />
      <path
         transform="matrix(0.58036384,0,0,0.58036384,106.97285,426.37674)"
         d="m -134.35028,944.27588 c 0,6.13681 -4.97487,11.11168 -11.11168,11.11168 -6.13681,0 -11.11168,-4.97487 -11.11168,-11.11168 0,-6.13681 4.97487,-11.11168 11.11168,-11.11168 6.13681,0 11.11168,4.97487 11.11168,11.11168 z"
         sodipodi:ry="11.111678"
         sodipodi:rx="11.111678"
         sodipodi:cy="944.27588"
         sodipodi:cx="-145.46196"
         id="path3979-5-11-6"
         style="fill:#000000;fill-opacity:1;stroke:#333333"
         sodipodi:type="arc" />
    </g>
  </g>
</svg>
